<svg xmlns="http://www.w3.org/2000/svg" viewBox="0 0 680 200" fill="none">
  <rect width="680" height="200" rx="16" fill="#0d1117"/>
  <defs>
    <pattern id="g" width="40" height="40" patternUnits="userSpaceOnUse">
      <path d="M40 0L0 0 0 40" fill="none" stroke="#161b22" stroke-width="1"/>
    </pattern>
  </defs>
  <rect width="680" height="200" fill="url(#g)"/>
  <g transform="translate(40,40)">
    <rect width="120" height="120" rx="16" fill="#1a2332" stroke="#42b883" stroke-width="2.5"/>
    <path d="M18 88 L18 48 L34 58 L34 44 L50 54 L50 38 L66 48 L66 88Z" fill="#42b883" opacity="0.3" stroke="#42b883" stroke-width="1.5"/>
    <circle cx="88" cy="52" r="18" fill="none" stroke="#42b883" stroke-width="2"/>
    <circle cx="88" cy="52" r="8" fill="none" stroke="#42b883" stroke-width="2"/>
    <line x1="88" y1="32" x2="88" y2="37" stroke="#42b883" stroke-width="3" stroke-linecap="round"/>
    <line x1="88" y1="67" x2="88" y2="72" stroke="#42b883" stroke-width="3" stroke-linecap="round"/>
    <line x1="68" y1="52" x2="73" y2="52" stroke="#42b883" stroke-width="3" stroke-linecap="round"/>
    <line x1="103" y1="52" x2="108" y2="52" stroke="#42b883" stroke-width="3" stroke-linecap="round"/>
    <path d="M78 78 L78 96 Q78 106 88 108 Q98 106 98 96 L98 78Z" fill="none" stroke="#42b883" stroke-width="1.5" opacity="0.5"/>
    <path d="M85 90 L88 94 L95 85" stroke="#42b883" stroke-width="1.5" stroke-linecap="round" fill="none" opacity="0.5"/>
  </g>
  <text x="195" y="72" font-family="'Segoe UI',system-ui,sans-serif" font-size="42" fill="#e6edf3" font-weight="700" letter-spacing="-1">SmartFactory</text>
  <text x="195" y="118" font-family="'Segoe UI',system-ui,sans-serif" font-size="46" fill="#42b883" font-weight="700" letter-spacing="-1">Admin</text>
  <text x="197" y="148" font-family="'Segoe UI',system-ui,sans-serif" font-size="14" fill="#7d8590">&#x667A;&#x5DE5;&#x6167;&#x5382;&#x6743;&#x9650;&#x7BA1;&#x7406; | uni-app | &#x591A;&#x7AEF;&#x9002;&#x914D;</text>
  <g transform="translate(197,162)">
    <rect width="66" height="22" rx="11" fill="#1a2332" stroke="#42b883" stroke-width="1"/>
    <text x="33" y="15" font-family="monospace" font-size="10" fill="#42b883" text-anchor="middle">Vue.js</text>
    <rect x="76" width="72" height="22" rx="11" fill="#1a2332" stroke="#58a6ff" stroke-width="1"/>
    <text x="112" y="15" font-family="monospace" font-size="10" fill="#58a6ff" text-anchor="middle">uni-app</text>
    <rect x="158" width="66" height="22" rx="11" fill="#1a2332" stroke="#f0883e" stroke-width="1"/>
    <text x="191" y="15" font-family="monospace" font-size="10" fill="#f0883e" text-anchor="middle">uView</text>
    <rect x="234" width="58" height="22" rx="11" fill="#1a2332" stroke="#a371f7" stroke-width="1"/>
    <text x="263" y="15" font-family="monospace" font-size="10" fill="#a371f7" text-anchor="middle">Vuex</text>
  </g>
</svg>